<?xml version="1.0" encoding="UTF-8" standalone="no"?>
<!DOCTYPE svg PUBLIC "-//W3C//DTD SVG 1.1//EN" "http://www.w3.org/Graphics/SVG/1.1/DTD/svg11.dtd">
<svg width="100%" height="100%" viewBox="0 0 1194 271" version="1.1" xmlns="http://www.w3.org/2000/svg" xmlns:xlink="http://www.w3.org/1999/xlink" xml:space="preserve" xmlns:serif="http://www.serif.com/" style="fill-rule:evenodd;clip-rule:evenodd;stroke-linejoin:round;stroke-miterlimit:2;">
    <g transform="matrix(1.08561,0,0,1.08561,-82.0783,-51.4973)">
        <path d="M372.36,134.586L371.863,141.78L373.93,186.044L373.823,189.91L373.765,203.911L387.278,201.541L387.305,178.185C389.334,176.279 410.876,173.864 412.35,182.736C414.01,191.796 414.093,193.542 413.632,199.654L430.083,202.096C430.465,192.861 430.717,189.777 428.485,179.521C426.132,176.214 421.703,174.04 415.162,171.556C418.455,170.208 425.564,168.003 427.928,162.785C433.195,151.161 427.131,144.304 421.612,141.162C418.936,139.639 397.403,134.924 386.549,136.237L386.012,132.412L372.36,134.586ZM387.025,146.753L386.584,165.461C399.169,168.396 414.96,162.429 415.951,157.336C418.03,146.652 401.342,145.533 387.025,146.753Z" style="fill:rgb(0,138,232);"/>
    </g>
    <g transform="matrix(1,0,0,1,-42.2427,-46.8659)">
        <path d="M684.542,143.607L675.996,163.348L657.578,209.257L669.009,213.797L674.902,198.184L701.072,200.211L707.938,214.599L719.268,210.988L715.679,202.92L699.147,144.493L684.542,143.607ZM689.432,159.624L678.25,188.205L698.063,188.359L692.601,165.274L689.432,159.624Z" style="fill:rgb(120,176,0);"/>
    </g>
    <g transform="matrix(1,0,0,1,-42.2427,-46.8659)">
        <path d="M745.183,136.431L744.451,209.841L752.257,214.518L768.782,212.069L781.757,207.619L782.596,195.386L778.179,195.231L764.064,199.734L758.573,198.15L758.922,138.794L745.183,136.431Z" style="fill:rgb(120,176,0);"/>
    </g>
    <g transform="matrix(1,0,0,1,-42.2427,-46.8659)">
        <path d="M812.437,133.385L809.41,136.438L809.309,179.515L808.484,184.917L807.786,220.511L812.377,227.577L831.392,225.712L847.427,219.068L847.286,210.612L834.123,213.525L825.284,214.048L822.203,212.142L821.753,191.997L823.183,187.802L825.693,137.19L812.437,133.385Z" style="fill:rgb(120,176,0);"/>
    </g>
    <g transform="matrix(1,0,0,1,-42.2427,-46.8659)">
        <path d="M874.442,136.257L871.932,139.357L871.341,180.857L869.643,195.332L869.556,215.021L881.805,213.733L884.477,203.392L884.604,165.221L886.302,160.322L886,139.23L874.442,136.257Z" style="fill:rgb(120,176,0);"/>
    </g>
    <g transform="matrix(1,0,0,1,-42.2427,-46.8659)">
        <path d="M939.797,140.028L936.568,144.424L936.709,148.242L907.969,209.257L906.089,211.948L921.822,217.699L927.903,204.21L931.132,197.728L956.946,197.097L969.397,213.042L971.148,217.269L982.586,208.19L969.578,188.869L953.14,143.478L939.797,140.028ZM945.78,161.652L934.313,185.561L954.838,186.581L945.78,161.652Z" style="fill:rgb(120,176,0);"/>
    </g>
    <g transform="matrix(1,0,0,1,-41.2427,-46.8659)">
        <path d="M1001.34,147.908L1001.72,206.282L1016.96,209.176L1017.09,174.341L1033.81,183.065L1069.28,197.942L1068.67,172.817L1071.41,144.553L1055.77,141.162L1054.83,175.139L1042.51,171.032L1001.34,147.908Z" style="fill:rgb(120,176,0);"/>
    </g>
    <g transform="matrix(1,0,0,1,-41.2427,-46.8659)">
        <path d="M1096.25,137.19C1090.28,158.244 1089.58,178.756 1091.29,199.023C1093,206.056 1096.22,211.415 1100.94,215.102C1101.18,216.721 1107.94,217.598 1120.93,216.659C1125.22,215.714 1132.1,212.835 1143.59,206.485L1136.65,194.688L1123.97,201.177C1114.63,204.015 1109.42,203.531 1107.74,200.231C1101.9,177.198 1102.02,158.185 1108.38,143.384C1116.88,142.235 1121.1,145.865 1124.05,154.29L1126.47,160.81L1138.47,154.128L1133.59,141.511L1119.4,130.653L1105.89,128.714C1101.18,129.619 1098.12,132.634 1096.25,137.19Z" style="fill:rgb(120,176,0);"/>
    </g>
    <g transform="matrix(1,0,0,1,-40.887,-44.4501)">
        <path d="M1175.75,136.465L1162.31,142.652C1156.93,159.18 1155.03,177.415 1157.86,197.969L1162.45,205.096L1181.5,210.579L1203.61,206.68L1204.15,194.527C1196.57,197.841 1190.3,198.729 1184.66,198.459L1172.97,196.52C1169.57,194.675 1169.31,188.871 1171.07,180.548L1215.74,175.513L1211.16,162.174C1206.4,153.369 1198.99,146.404 1189.72,140.726L1175.75,136.465ZM1179.06,150.987C1176.39,151.085 1174.16,152.063 1172.37,153.92L1170.99,166.625L1193.19,168.046L1199.64,166.259C1191.9,154.508 1185.74,149.276 1179.06,150.987Z" style="fill:rgb(120,176,0);"/>
    </g>
    <g id="Layer1" transform="matrix(1,0,0,1,-29,-49)">
        <g transform="matrix(1,0,0,1,-19.7233,0.568787)">
            <path d="M477.073,134.868C471.266,135.794 461.394,135.821 457.582,160.134C453.769,184.447 459.73,200.177 462.482,204.573C465.233,208.968 474.65,212.498 474.65,212.498L494.813,210.371L497.397,197.882L484.53,200.07L474.154,196.701L472.502,179.951L507.17,178.233C504.993,167.856 503.495,157.699 500.015,148.115C498.102,142.847 486.472,133.369 477.073,134.868ZM471.559,168.726L493.833,167.614C492.212,166.788 487.005,145.105 479.067,147.893C470.126,151.034 471.559,168.726 471.559,168.726Z" style="fill:rgb(0,138,232);"/>
        </g>
        <g transform="matrix(1,0,0,1,-20.0688,2.35553)">
            <path d="M530.809,138.357L531.481,181.931L530.944,213.619L543.723,215.464L544.636,181.608C559.203,181.964 569.655,181.81 578.592,178.454L585.848,169.623C584.607,159.533 578.987,152.118 568.779,147.504C557.734,141.707 544.719,139.268 530.809,138.357ZM543.414,152.155L543.951,169.495C555.867,171.46 567.604,173.082 570.638,164.603C571.371,158.789 559.871,155.051 543.414,152.155Z" style="fill:rgb(0,138,232);"/>
        </g>
        <g transform="matrix(1,0,0,1,-19.0688,2.35553)">
            <path d="M602.547,137.861L601.111,206.66C602.248,212.579 604.763,216.807 609.749,218.001L632.563,217.055L638.067,214.88L637.765,203.499C626.844,204.708 618.355,204.444 616.065,200.425L616.259,137.411L602.547,137.861Z" style="fill:rgb(0,138,232);"/>
        </g>
        <path d="M164.284,65.787L107.594,77.41L66.544,114.064L50.489,164.542L46.354,183.668L48.435,213.558L58.61,246.36L77.659,271.338L99.379,288.611L127.744,302.959L164.579,307.133L164.861,288.477L138.832,287.242L100.211,274.989L76.773,248.521L67.578,228.214L65.671,178.112L68.907,156.892L88.841,117.164L110.212,94.455L120.951,87.274L147.839,82.107L164.633,83.745L164.284,65.787Z" style="fill:rgb(120,176,0);"/>
        <g transform="matrix(0.999984,0.00567654,-0.00567654,0.999984,4.03636,-0.063123)">
            <path d="M173.761,140.665C175.343,142.934 170.11,140.867 170.11,140.867L170.982,223.826L181.198,222.98L199.602,209.746L200.206,203.546L205.965,201.156L211.469,165.469L205.992,160.664L190.997,180.058L184.111,183.172L173.988,173.891L174.034,166.019L189.485,144.236C189.485,144.236 172.179,138.397 173.761,140.665Z" style="fill:rgb(120,176,0);"/>
        </g>
        <g transform="matrix(0.999813,0.0193391,-0.0193391,0.999813,6.13261,-2.04609)">
            <path d="M162.43,138.331L148.395,144.122L160.04,171.629L144.589,183.313L140.663,182.407L128.373,158.268L124.084,164.482L122.856,180.139L124.695,196.03L129.937,206.291L164.121,225.524L162.43,138.331Z" style="fill:rgb(0,138,232);"/>
        </g>
        <path d="M171.994,66.216L172.256,83.463L199.976,86.154L205.124,90.597L212.628,90.905L238.644,108.441C257.754,116.779 270.983,136.267 271.398,170.321C274.92,175.895 273.668,199.888 268.66,226.188L249.772,258.635L230.073,275.18C212.578,283.503 197.525,290.375 180.961,293.437L178.471,290.558L173.189,294.095L171.773,307.966C182.863,307.027 189.204,306.341 205.128,305.51C224.948,295.439 251.579,278.866 269.287,259.776L285.111,219.752C285.941,200.995 288.915,177.85 286.171,159.657C280.851,126.314 263.324,107.811 244.47,89.691L203.648,70.008L171.994,66.216Z" style="fill:rgb(0,138,232);"/>
    </g>
</svg>
